HIERARCHY
ROOT hip
{
  OFFSET 0 0 0
  CHANNELS 6 Xposition Yposition Zposition Zrotation Yrotation Xrotation
  JOINT abdomen
  {
    OFFSET 0 20.6881 -0.73152
    CHANNELS 3 Zrotation Xrotation Yrotation
    JOINT chest
    {
      OFFSET 0 11.7043 -0.48768
      CHANNELS 3 Zrotation Xrotation Yrotation
      JOINT neck
      {
        OFFSET 0 22.1894 -2.19456
        CHANNELS 3 Zrotation Xrotation Yrotation
        JOINT head
        {
          OFFSET -0.24384 7.07133 1.2192
          CHANNELS 3 Zrotation Xrotation Yrotation
          JOINT leftEye
          {
            OFFSET 4.14528 8.04674 8.04672
            CHANNELS 3 Zrotation Xrotation Yrotation
            End Site
            {
              OFFSET 1 0 0
            }
          }
          JOINT rightEye
          {
            OFFSET -3.6576 8.04674 8.04672
            CHANNELS 3 Zrotation Xrotation Yrotation
            End Site
            {
              OFFSET 1 0 0
            }
          }
        }
      }
      JOINT rCollar
      {
        OFFSET -2.68224 19.2634 -4.8768
        CHANNELS 3 Zrotation Xrotation Yrotation
        JOINT rShldr
        {
          OFFSET -8.77824 -1.95073 1.46304
          CHANNELS 3 Zrotation Xrotation Yrotation
          JOINT rForeArm
          {
            OFFSET -28.1742 -1.7115 0.48768
            CHANNELS 3 Zrotation Xrotation Yrotation
            JOINT rHand
            {
              OFFSET -22.5879 0.773209 7.07136
              CHANNELS 3 Zrotation Xrotation Yrotation
              JOINT rThumb1
              {
                OFFSET -1.2192 -0.487915 3.41376
                CHANNELS 3 Zrotation Xrotation Yrotation
                JOINT rThumb2
                {
                  OFFSET -3.37035 -0.52449 3.41376
                  CHANNELS 3 Zrotation Xrotation Yrotation
                  End Site
                  {
                    OFFSET -1.78271 -1.18214 1.43049
                  }
                }
              }
              JOINT rIndex1
              {
                OFFSET -7.75947 0.938293 5.60832
                CHANNELS 3 Zrotation Xrotation Yrotation
                JOINT rIndex2
                {
                  OFFSET -2.54057 -0.884171 1.56538
                  CHANNELS 3 Zrotation Xrotation Yrotation
                  End Site
                  {
                    OFFSET -1.62519 -0.234802 1.16502
                  }
                }
              }
              JOINT rMid1
              {
                OFFSET -8.24714 1.18213 3.41376
                CHANNELS 3 Zrotation Xrotation Yrotation
                JOINT rMid2
                {
                  OFFSET -3.10165 -0.590103 1.0647
                  CHANNELS 3 Zrotation Xrotation Yrotation
                  End Site
                  {
                    OFFSET -2.48547 -0.328903 0.83742
                  }
                }
              }
              JOINT rRing1
              {
                OFFSET -8.82822 0.546677 1.51678
                CHANNELS 3 Zrotation Xrotation Yrotation
                JOINT rRing2
                {
                  OFFSET -2.60934 -0.819778 -0.0198488
                  CHANNELS 3 Zrotation Xrotation Yrotation
                  End Site
                  {
                    OFFSET -2.33842 -0.294052 0.168128
                  }
                }
              }
              JOINT rPinky1
              {
                OFFSET -8.27202 -0.0477905 -0.4584
                CHANNELS 3 Zrotation Xrotation Yrotation
                JOINT rPinky2
                {
                  OFFSET -1.82734 -0.647385 -0.700984
                  CHANNELS 3 Zrotation Xrotation Yrotation
                  End Site
                  {
                    OFFSET -1.69225 -0.51767 -0.607171
                  }
                }
              }
            }
          }
        }
      }
      JOINT lCollar
      {
        OFFSET 2.68224 19.2634 -4.8768
        CHANNELS 3 Zrotation Xrotation Yrotation
        JOINT lShldr
        {
          OFFSET 8.77824 -1.95073 1.46304
          CHANNELS 3 Zrotation Xrotation Yrotation
          JOINT lForeArm
          {
            OFFSET 28.1742 -1.7115 0.48768
            CHANNELS 3 Zrotation Xrotation Yrotation
            JOINT lHand
            {
              OFFSET 22.5879 0.773209 7.07136
              CHANNELS 3 Zrotation Xrotation Yrotation
              JOINT lThumb1
              {
                OFFSET 1.2192 -0.487915 3.41376
                CHANNELS 3 Zrotation Xrotation Yrotation
                JOINT lThumb2
                {
                  OFFSET 3.37035 -0.52449 3.41376
                  CHANNELS 3 Zrotation Xrotation Yrotation
                  End Site
                  {
                    OFFSET 1.78271 -1.18214 1.43049
                  }
                }
              }
              JOINT lIndex1
              {
                OFFSET 7.75947 0.938293 5.60832
                CHANNELS 3 Zrotation Xrotation Yrotation
                JOINT lIndex2
                {
                  OFFSET 2.54057 -0.884171 1.56538
                  CHANNELS 3 Zrotation Xrotation Yrotation
                  End Site
                  {
                    OFFSET 1.62519 -0.234802 1.16502
                  }
                }
              }
              JOINT lMid1
              {
                OFFSET 8.24714 1.18213 3.41376
                CHANNELS 3 Zrotation Xrotation Yrotation
                JOINT lMid2
                {
                  OFFSET 3.10165 -0.590103 1.0647
                  CHANNELS 3 Zrotation Xrotation Yrotation
                  End Site
                  {
                    OFFSET 2.48547 -0.328903 0.83742
                  }
                }
              }
              JOINT lRing1
              {
                OFFSET 8.82822 0.546677 1.51678
                CHANNELS 3 Zrotation Xrotation Yrotation
                JOINT lRing2
                {
                  OFFSET 2.60934 -0.819778 -0.0198488
                  CHANNELS 3 Zrotation Xrotation Yrotation
                  End Site
                  {
                    OFFSET 2.33842 -0.294052 0.168128
                  }
                }
              }
              JOINT lPinky1
              {
                OFFSET 8.27202 -0.0477905 -0.4584
                CHANNELS 3 Zrotation Xrotation Yrotation
                JOINT lPinky2
                {
                  OFFSET 1.82734 -0.647385 -0.700984
                  CHANNELS 3 Zrotation Xrotation Yrotation
                  End Site
                  {
                    OFFSET 1.69225 -0.51767 -0.607171
                  }
                }
              }
            }
          }
        }
      }
    }
  }
  JOINT rButtock
  {
    OFFSET -8.77824 4.35084 1.2192
    CHANNELS 3 Zrotation Xrotation Yrotation
    JOINT rThigh
    {
      OFFSET 0 -1.70687 -2.19456
      CHANNELS 3 Zrotation Xrotation Yrotation
      JOINT rShin
      {
        OFFSET 0 -36.8199 0.73152
        CHANNELS 3 Zrotation Xrotation Yrotation
        JOINT rFoot
        {
          OFFSET 0.73152 -45.1104 -5.12064
          CHANNELS 3 Zrotation Xrotation Yrotation
          End Site
          {
            OFFSET -1.1221 -3.69964 12.103
          }
        }
      }
    }
  }
  JOINT lButtock
  {
    OFFSET 8.77824 4.35084 1.2192
    CHANNELS 3 Zrotation Xrotation Yrotation
    JOINT lThigh
    {
      OFFSET 0 -1.70687 -2.19456
      CHANNELS 3 Zrotation Xrotation Yrotation
      JOINT lShin
      {
        OFFSET 0 -36.8199 0.73152
        CHANNELS 3 Zrotation Xrotation Yrotation
        JOINT lFoot
        {
          OFFSET -0.73152 -45.1104 -5.12064
          CHANNELS 3 Zrotation Xrotation Yrotation
          End Site
          {
            OFFSET 1.1221 -3.69964 12.103
          }
        }
      }
    }
  }
}
MOTION
Frames:	6
Frame Time:	0.00833333
-7.5827 83.6309 61.7769 -2.052 7.3863 7.667 9.35938 -1.42122 -3.60015 1.00967 -0.109479 -1.01432 -3.74607 -0.748288 -1.76863 -7.76665 -4.10091 -2.69128 -0.0 0.0 0.0 -0.0 0.0 0.0 -1.06641e-13 5.96767e-14 1.80517e-14 73.744 -12.2293 -4.07629 -7.28036 -2.64552 12.7909 -0.000277383 0.099304 0.0139613 4.97214e-10 3.2168e-10 -1.48596e-09 8.56546e-10 5.54453e-10 -2.57012e-09 4.97214e-10 3.21677e-10 -1.48596e-09 7.73091 5.47488 0.417314 4.97214e-10 3.21679e-10 -1.48596e-09 2.90554 0.965183 0.102902 4.97216e-10 3.21679e-10 -1.48596e-09 10.2786 0.731801 0.0259123 4.97208e-10 3.21681e-10 -1.48595e-09 2.22167 -0.733487 -0.20892 -1.06656e-13 5.96934e-14 1.7877e-14 -81.6132 38.3991 2.95298 17.1389 -9.79003 -32.1154 0.0166862 3.68491 -0.518603 6.93922e-10 1.13471e-09 5.39689e-10 1.20234e-09 1.96214e-09 9.3001e-10 6.93911e-10 1.13471e-09 5.39697e-10 -7.73091 5.47488 -0.417314 6.93908e-10 1.13469e-09 5.39683e-10 -2.90554 0.965183 -0.102902 6.93908e-10 1.1347e-09 5.39693e-10 -10.2786 0.731801 -0.0259123 6.93928e-10 1.13471e-09 5.39687e-10 -2.22167 -0.733487 0.20892 -2.03217e-16 0.0 -3.88251e-19 5.75335 -10.5588 -2.11112 -0.00974931 14.5861 0.271361 -4.3443 -10.355 -17.0941 2.03217e-16 0.0 3.88251e-19 6.33846 -12.5649 -4.7533 0.0845895 16.7636 -0.271878 1.02459 -10.9317 2.32853
-7.41487 83.6318 62.0201 -1.7055 7.7748 7.8003 9.42811 -1.54602 -3.7528 1.00118 -0.0790995 -1.06079 -3.63493 -0.808431 -1.73097 -7.88228 -3.88719 -2.63441 -0.0 0.0 0.0 -0.0 0.0 0.0 -1.03502e-13 1.16081e-13 3.32964e-14 73.6425 -12.0872 -4.60529 -7.19179 -2.60183 12.6305 -9.27138e-06 0.0869455 0.0122194 1.07678e-10 4.29916e-10 -2.07046e-09 1.82589e-10 7.40974e-10 -3.57924e-09 1.07678e-10 4.29913e-10 -2.07046e-09 7.73091 5.47488 0.417314 1.07677e-10 4.29915e-10 -2.07046e-09 2.90554 0.965183 0.102902 1.0768e-10 4.29915e-10 -2.07046e-09 10.2786 0.731801 0.0259123 1.07672e-10 4.29918e-10 -2.07045e-09 2.22167 -0.733487 -0.20892 -1.03539e-13 1.16099e-13 3.30976e-14 -81.6821 38.5317 3.03422 17.1872 -9.83877 -32.2213 0.016744 3.69167 -0.519557 4.12225e-10 9.81535e-10 4.07725e-10 7.15696e-10 1.69831e-09 7.0243e-10 4.12215e-10 9.8153e-10 4.07731e-10 -7.73091 5.47488 -0.417314 4.12209e-10 9.81513e-10 4.07715e-10 -2.90554 0.965183 -0.102902 4.12209e-10 9.81526e-10 4.07729e-10 -10.2786 0.731801 -0.0259123 4.12233e-10 9.81528e-10 4.07725e-10 -2.22167 -0.733487 0.20892 -2.03217e-16 0.0 -3.88251e-19 5.74445 -10.4536 -2.27821 -0.00968125 14.4526 0.270518 -4.37692 -10.4432 -17.1531 2.03217e-16 0.0 3.88251e-19 6.33553 -12.5802 -4.85906 0.0846747 16.7407 -0.27153 0.993918 -10.991 2.20396
-7.31437 83.628 62.1601 -1.633 8.0473 7.8784 9.7139 -1.56766 -3.866 0.973634 -0.186134 -1.09295 -3.51805 -0.82563 -1.68138 -8.08191 -3.64343 -2.55789 -0.0 0.0 0.0 -0.0 0.0 0.0 -6.67602e-14 1.5477e-13 5.2056e-14 73.4988 -12.2706 -5.2218 -7.10577 -2.55972 12.4748 0.000558451 0.453326 0.0636996 -4.1909e-10 8.70706e-10 -2.30684e-09 -7.28847e-10 1.50457e-09 -3.98577e-09 -4.19091e-10 8.70705e-10 -2.30685e-09 7.73091 5.47488 0.417314 -4.19091e-10 8.70706e-10 -2.30684e-09 2.90554 0.965183 0.102902 -4.19086e-10 8.70707e-10 -2.30684e-09 10.2786 0.731801 0.0259123 -4.19096e-10 8.70709e-10 -2.30684e-09 2.22167 -0.733487 -0.20892 -6.68214e-14 1.54787e-13 5.18199e-14 -81.8202 38.5847 3.1677 17.2204 -9.87227 -32.2941 0.017047 3.72343 -0.52404 -1.86861e-10 4.52805e-10 3.62086e-10 -3.20169e-10 7.8595e-10 6.26931e-10 -1.86869e-10 4.528e-10 3.62092e-10 -7.73091 5.47488 -0.417314 -1.86876e-10 4.52783e-10 3.62077e-10 -2.90554 0.965183 -0.102902 -1.86877e-10 4.52795e-10 3.6209e-10 -10.2786 0.731801 -0.0259123 -1.86855e-10 4.52798e-10 3.62085e-10 -2.22167 -0.733487 0.20892 -2.03217e-16 0.0 -3.88251e-19 5.95029 -10.3186 -2.31465 -0.00970734 14.2376 0.267702 -4.40421 -10.4716 -17.2842 2.03217e-16 0.0 3.88251e-19 6.53412 -12.6402 -4.91983 0.0857711 16.8157 -0.272953 0.968054 -11.0536 2.10192
-7.32579 83.6195 62.2338 -1.7015 8.2056 7.9114 10.1342 -1.52786 -3.95787 0.933494 -0.386107 -1.11715 -3.3918 -0.814336 -1.62372 -8.34654 -3.37053 -2.46938 -0.0 0.0 0.0 -0.0 0.0 0.0 -7.05477e-15 1.85856e-13 7.38796e-14 73.3136 -12.6593 -5.90725 -7.02127 -2.51865 12.322 -0.000105025 1.06099 0.149106 -1.06635e-09 1.52655e-09 -2.35183e-09 -1.84877e-09 2.64131e-09 -4.06079e-09 -1.06635e-09 1.52655e-09 -2.35184e-09 7.73091 5.47488 0.417314 -1.06635e-09 1.52655e-09 -2.35184e-09 2.90554 0.965183 0.102902 -1.06634e-09 1.52655e-09 -2.35184e-09 10.2786 0.731801 0.0259123 -1.06635e-09 1.52656e-09 -2.35183e-09 2.22167 -0.733487 -0.20892 -7.14646e-15 1.85871e-13 7.35938e-14 -82.0132 38.5747 3.3477 17.2435 -9.89574 -32.3446 0.0174806 3.7677 -0.53029 -1.01207e-09 -3.33579e-10 3.59801e-10 -1.74727e-09 -5.71293e-10 6.28269e-10 -1.01207e-09 -3.33582e-10 3.59806e-10 -7.73091 5.47488 -0.417314 -1.01208e-09 -3.33598e-10 3.59793e-10 -2.90554 0.965183 -0.102902 -1.01208e-09 -3.33588e-10 3.59803e-10 -10.2786 0.731801 -0.0259123 -1.01206e-09 -3.33585e-10 3.59797e-10 -2.22167 -0.733487 0.20892 -2.03217e-16 0.0 -3.88251e-19 6.28183 -10.1638 -2.28312 -0.00984498 13.9745 0.263682 -4.42633 -10.4654 -17.4493 2.03217e-16 0.0 3.88251e-19 6.85302 -12.7193 -4.95535 0.0874033 16.942 -0.275315 0.945396 -11.1159 2.01527
-7.55219 83.5765 62.392 -2.1494 8.1591 7.8211 10.541 -1.47041 -4.03356 0.903287 -0.588948 -1.13634 -3.28342 -0.788436 -1.5718 -8.58761 -3.13269 -2.38967 -0.0 0.0 0.0 -0.0 0.0 0.0 5.15386e-14 1.90404e-13 8.35742e-14 73.1117 -13.1017 -6.60473 -6.93805 -2.47848 12.1717 -0.00278492 1.71672 0.241324 -1.58469e-09 1.99091e-09 -2.15355e-09 -2.74524e-09 3.44682e-09 -3.71592e-09 -1.58469e-09 1.99091e-09 -2.15356e-09 7.73091 5.47488 0.417314 -1.58469e-09 1.99091e-09 -2.15355e-09 2.90554 0.965183 0.102902 -1.58468e-09 1.99091e-09 -2.15356e-09 10.2786 0.731801 0.0259123 -1.58469e-09 1.99091e-09 -2.15355e-09 2.22167 -0.733487 -0.20892 5.14227e-14 1.90416e-13 8.3245e-14 -82.1947 38.5544 3.51206 17.2633 -9.91597 -32.3879 0.0176765 3.78799 -0.533155 -1.713e-09 -1.06548e-09 3.43759e-10 -2.9598e-09 -1.83492e-09 6.05239e-10 -1.713e-09 -1.06548e-09 3.43765e-10 -7.73091 5.47488 -0.417314 -1.71301e-09 -1.0655e-09 3.43754e-10 -2.90554 0.965183 -0.102902 -1.71302e-09 -1.06549e-09 3.4376e-10 -10.2786 0.731801 -0.0259123 -1.713e-09 -1.06549e-09 3.43752e-10 -2.22167 -0.733487 0.20892 -2.03217e-16 0.0 -3.88251e-19 6.6256 -10.0247 -2.19295 -0.00997555 13.7348 0.260277 -4.46147 -10.4672 -17.651 2.03217e-16 0.0 3.88251e-19 7.1798 -12.7932 -4.97226 0.0889317 17.0611 -0.277453 0.921366 -11.178 1.92447
-7.63808 83.5651 62.3671 -2.4766 8.3085 7.8766 10.7863 -1.4391 -4.09825 0.905646 -0.704586 -1.15345 -3.22007 -0.761825 -1.53944 -8.71588 -2.99418 -2.33948 -0.0 0.0 0.0 -0.0 0.0 0.0 8.49447e-14 1.49481e-13 6.59468e-14 72.9268 -13.4475 -7.25502 -6.85586 -2.43905 12.0234 -0.00608816 2.2273 0.313186 -1.72471e-09 1.85722e-09 -1.6601e-09 -2.98631e-09 3.21675e-09 -2.8628e-09 -1.72471e-09 1.85722e-09 -1.66012e-09 7.73091 5.47488 0.417314 -1.72471e-09 1.85722e-09 -1.66011e-09 2.90554 0.965183 0.102902 -1.7247e-09 1.85722e-09 -1.66011e-09 10.2786 0.731801 0.0259123 -1.72471e-09 1.85722e-09 -1.66011e-09 2.22167 -0.733487 -0.20892 8.4823e-14 1.49491e-13 6.55989e-14 -82.2985 38.5773 3.59909 17.2865 -9.93972 -32.4387 0.017258 3.74781 -0.527481 -1.93928e-09 -1.43077e-09 2.56852e-10 -3.35198e-09 -2.46643e-09 4.56635e-10 -1.93927e-09 -1.43077e-09 2.56858e-10 -7.73091 5.47488 -0.417314 -1.93928e-09 -1.43078e-09 2.56849e-10 -2.90554 0.965183 -0.102902 -1.93929e-09 -1.43078e-09 2.56852e-10 -10.2786 0.731801 -0.0259123 -1.93928e-09 -1.43077e-09 2.56843e-10 -2.22167 -0.733487 0.20892 -2.03217e-16 0.0 -3.88251e-19 6.86849 -9.93681 -2.05341 -0.00993471 13.5902 0.259295 -4.52837 -10.5191 -17.8923 2.03217e-16 0.0 3.88251e-19 7.40202 -12.8375 -4.97721 0.0896995 17.1145 -0.278197 0.891297 -11.2402 1.80996
